<svg width="96" height="83" viewBox="0 0 96 83" fill="none" xmlns="http://www.w3.org/2000/svg">
<g clip-path="url(#clip0_123_272)">
<path d="M92.015 63.8951H3.68V4.12414H92.015V63.8951ZM95.696 65.7601V2.25814C95.696 1.22214 94.873 0.390137 93.857 0.390137H1.84C0.824 0.391137 0 1.22314 0 2.25814V65.7601C0 66.7931 0.825 67.6271 1.84 67.6271H36.807V78.8351H22.084C21.067 78.8351 20.245 79.6691 20.245 80.7031C20.245 81.7341 21.069 82.5711 22.084 82.5711H73.613C74.63 82.5711 75.454 81.7341 75.454 80.7031C75.454 79.6691 74.629 78.8351 73.613 78.8351H58.89V67.6271H93.858C94.875 67.6271 95.696 66.7921 95.696 65.7601Z" fill="white"/>
</g>
<defs>
<clipPath id="clip0_123_272">
<rect width="96" height="83" fill="white"/>
</clipPath>
</defs>
</svg>
