<svg width="91" height="81" viewBox="0 0 91 81" fill="none" xmlns="http://www.w3.org/2000/svg">
<path d="M18.4844 35.4375H4.26563C1.90976 35.4375 0 37.1374 0 39.2344V77.2031C0 79.3001 1.90976 81 4.26563 81H18.4844C20.8403 81 22.75 79.3001 22.75 77.2031V39.2344C22.75 37.1374 20.8403 35.4375 18.4844 35.4375ZM11.375 74.6719C9.01914 74.6719 7.10938 72.972 7.10938 70.875C7.10938 68.778 9.01914 67.0781 11.375 67.0781C13.7309 67.0781 15.6406 68.778 15.6406 70.875C15.6406 72.972 13.7309 74.6719 11.375 74.6719ZM68.25 12.886C68.25 19.5963 63.6343 23.3603 62.3356 27.8438H80.4153C86.3511 27.8438 90.9722 32.2333 90.9999 37.035C91.0148 39.8729 89.6587 42.9279 87.5449 44.8182L87.5254 44.8356C89.2735 48.5275 88.9893 53.7008 85.871 57.4078C87.4139 61.5045 85.8587 66.5368 82.9593 69.2346C83.7233 72.0187 83.3582 74.3881 81.8666 76.2955C78.2391 80.9347 69.2482 81 61.6452 81L61.1396 80.9998C52.5573 80.9972 45.5334 78.2158 39.8897 75.9808C37.0536 74.8578 33.3453 73.4675 30.5318 73.4214C29.3694 73.4025 28.4375 72.5581 28.4375 71.5233V37.7042C28.4375 37.198 28.6654 36.7121 29.0699 36.3562C36.1107 30.1635 39.1382 23.6071 44.9091 18.4617C47.5402 16.1152 48.4972 12.5708 49.4223 9.14319C50.2127 6.21628 51.8659 0 55.4532 0C59.7188 0 68.25 1.26562 68.25 12.886Z" fill="white"/>
</svg>
