<svg width="300" height="66" viewBox="0 0 300 66" fill="none" xmlns="http://www.w3.org/2000/svg">
<path fill-rule="evenodd" clip-rule="evenodd" d="M64.697 2.79462C34.4704 -2.52792 -0.263637 0.399479 0.00150866 31.2702C0.266654 67.1974 36.3265 66.399 64.9622 62.4071C64.9622 57.6168 64.9622 44.8427 64.9622 43.7782C64.9622 43.7782 62.3107 44.3104 60.4547 44.3104C57.273 44.3104 54.3564 43.2459 53.0306 42.4476C51.7049 41.6492 50.3792 40.5847 49.5837 39.7863C48.5232 38.7218 47.9929 37.6573 47.4626 36.5928C45.3414 32.3347 47.9929 27.5444 50.114 25.1493C51.1746 24.0848 53.0306 23.0203 54.8867 22.2219C55.4169 21.9558 56.4775 21.6896 58.0684 21.4235C59.129 21.1574 59.9244 21.1574 60.985 21.1574C63.1062 21.1574 64.697 21.6896 64.697 21.6896C64.697 16.6332 64.697 10.2462 64.697 2.79462Z" fill="white"/>
<path fill-rule="evenodd" clip-rule="evenodd" d="M127.802 21.6896C134.695 21.6896 140.264 17.1654 140.264 11.3106C140.264 5.72193 134.695 0.931641 127.802 0.931641C120.908 0.931641 115.34 5.4558 115.34 11.3106C115.34 16.8993 120.908 21.6896 127.802 21.6896Z" fill="white"/>
<path fill-rule="evenodd" clip-rule="evenodd" d="M68.9394 0.665527H90.6813V22.4879H112.688V41.383H90.6813V64.536H68.9394V42.4475L70.5303 41.1168L71.856 40.0523L73.4469 38.1894L74.5075 35.5282L75.0377 34.1975V33.133V32.3346L74.7726 31.004L74.5075 29.4073L73.712 27.8105L72.6514 26.4799L71.5908 25.4153L70.7954 24.617L69.7348 23.8186L68.9394 23.2863V0.665527Z" fill="white"/>
<path fill-rule="evenodd" clip-rule="evenodd" d="M274.162 64.8022H298.025L269.389 36.8588L299.351 0.931654L276.548 0.665527L257.193 24.617L233.065 0.931654C233.065 0.931654 233.33 19.5606 233.065 25.1492L274.162 64.8022Z" fill="white"/>
<path fill-rule="evenodd" clip-rule="evenodd" d="M217.951 21.4234C224.845 21.4234 230.413 16.8993 230.413 11.0445C230.413 5.45581 224.845 0.665527 217.951 0.665527C211.057 0.665527 205.489 5.18969 205.489 11.0445C205.489 16.6332 211.057 21.4234 217.951 21.4234Z" fill="white"/>
<path fill-rule="evenodd" clip-rule="evenodd" d="M181.626 0.665507C179.505 0.665507 177.914 0.665507 177.914 0.665507H172.876H159.884H149.013H142.12V13.1735H179.505C181.096 13.1735 182.422 13.1735 183.482 13.7057C185.338 14.5041 186.664 16.1009 186.664 17.6976C186.929 20.8912 184.278 22.7541 180.566 22.7541H141.589L141.854 64.8021H163.331V41.6491L172.081 41.3829L178.71 41.1168L183.747 40.8507L187.725 40.3184L191.172 39.5201L193.293 38.7217L196.209 37.1249L198.33 35.5281L199.656 34.1975L200.982 32.0685L201.777 30.2056L202.573 28.0766L202.838 26.4798L203.103 24.0847V21.9557V19.2944L202.838 16.367L202.573 14.238L202.043 12.109L200.982 9.71383C198.065 3.06065 191.702 0.39938 181.626 0.665507Z" fill="white"/>
<path d="M138.142 22.7539H116.4V65.0681H138.142V22.7539Z" fill="white"/>
<path d="M228.292 22.4878H206.55V64.802H228.292V22.4878Z" fill="white"/>
<path fill-rule="evenodd" clip-rule="evenodd" d="M244.996 64.8023C251.89 64.8023 257.458 60.2782 257.458 54.4234C257.458 48.8347 251.89 44.0444 244.996 44.0444C238.102 44.0444 232.534 48.5686 232.534 54.4234C232.534 60.2782 238.102 64.8023 244.996 64.8023Z" fill="white"/>
</svg>
