<svg width="24" height="18" viewBox="0 0 24 18" fill="none" xmlns="http://www.w3.org/2000/svg">
<path d="M16.6206 11.6778C20.8934 8.5738 22.4605 7.40928 23.5 6.6106V15.75C23.5 16.716 22.716 17.5 21.75 17.5H2.25C1.28395 17.5 0.5 16.716 0.5 15.75V6.61503C1.54061 7.41315 3.11178 8.57413 7.3838 11.6776C7.51566 11.7739 7.66986 11.8928 7.84111 12.0249C8.2586 12.3469 8.77739 12.747 9.32064 13.0871C10.0937 13.571 11.0249 14.0091 11.9994 14.0047C12.9803 14.0118 13.923 13.5655 14.6998 13.078C15.2449 12.7359 15.7644 12.3342 16.1749 12.0169C16.3439 11.8862 16.4944 11.7698 16.6206 11.6778ZM12.0086 11.5001L12 11.4999L11.9914 11.5001C11.8207 11.503 11.5945 11.4493 11.3146 11.327C11.0395 11.2067 10.7441 11.0343 10.444 10.8348C10.0437 10.5687 9.68301 10.2895 9.35937 10.039C9.17931 9.89968 9.01072 9.76921 8.85317 9.6548L8.85304 9.6547C3.0939 5.47531 2.26746 4.82852 1.04194 3.86942C0.944911 3.79348 0.845376 3.71558 0.740692 3.63382C0.586761 3.51113 0.5 3.33128 0.5 3.14062V2.25C0.5 1.28395 1.28395 0.5 2.25 0.5H21.75C22.716 0.5 23.5 1.28395 23.5 2.25V3.14062C23.5 3.335 23.4105 3.51652 23.2622 3.63151L23.2602 3.63314C23.1791 3.69673 23.1011 3.75797 23.025 3.81774C21.7612 4.81015 21.0119 5.39853 15.147 9.6547L15.1468 9.6548C14.9893 9.76921 14.8207 9.89968 14.6406 10.039C14.317 10.2895 13.9563 10.5687 13.556 10.8348C13.2559 11.0343 12.9605 11.2067 12.6854 11.327C12.4055 11.4493 12.1793 11.503 12.0086 11.5001Z" stroke="#212529"/>
</svg>
