<svg width="59" height="82" viewBox="0 0 59 82" fill="none" xmlns="http://www.w3.org/2000/svg">
<path d="M27.1697 0.352425C26.6635 0.532413 25.5059 1.25412 24.5643 1.90348C21.6349 4.03156 20.8738 4.2839 17.7267 4.2839C16.0983 4.2839 14.2893 4.49918 13.6379 4.78857C11.9369 5.47322 10.5988 7.24133 9.91203 9.61997C8.97215 12.8297 8.46415 13.5514 5.67991 15.6072C3.83555 16.9782 2.8585 17.9876 2.38767 18.9969C1.62833 20.6927 1.70091 21.702 2.8939 25.5964L3.72581 28.3386L2.74876 31.5483C1.15751 36.6338 1.59116 38.0755 5.75071 41.07C8.21104 42.8734 8.86241 43.7398 9.76689 46.6602C11.2148 51.241 12.19 51.9609 17.4736 52.2503L21.38 52.5027L24.166 54.4137C26.5184 56.1094 27.2051 56.3971 28.9415 56.5047C31.039 56.6494 31.0762 56.6494 35.3808 53.5843C36.827 52.538 37.1898 52.4656 40.4449 52.3227C42.3618 52.2503 44.3885 52.035 44.9673 51.818C46.486 51.241 47.6081 49.6546 48.6578 46.5172C49.6348 43.5598 50.1056 42.9475 53.6864 40.2053C56.5078 38.0773 57.0512 35.7692 55.7131 31.8748C54.8086 29.242 54.8086 27.2939 55.7131 24.6612C57.1964 20.405 56.545 18.5664 52.7111 15.6442C49.9605 13.6256 49.0578 12.2174 48.2967 9.15236C47.9356 7.49366 46.7054 5.76261 45.4753 5.07619C44.6788 4.67916 43.1229 4.42683 40.6272 4.28213C37.0093 4.10215 36.9367 4.06509 34.4764 2.44345C33.1382 1.50646 31.655 0.567703 31.2213 0.350658C30.2814 -0.116951 28.3645 -0.116951 27.1697 0.352425ZM35.8888 9.08001C39.1811 10.2711 41.5317 11.8575 44.1371 14.5978C47.7905 18.494 49.564 22.9654 49.564 28.4109C49.564 39.4113 40.3387 48.6435 29.3044 48.6435C23.4084 48.6435 19.0294 46.7678 14.8327 42.5487C13.314 41.0347 11.6484 38.979 11.1068 37.9326C9.80406 35.4798 8.68364 31.0437 8.68364 28.3033C8.71904 19.1063 15.3761 10.7405 24.4563 8.43065C27.568 7.63836 32.7772 7.92598 35.8888 9.08001Z" fill="white"/>
<path d="M38.8909 20.7288C37.9139 21.2335 36.358 22.2075 35.4181 22.8569C33.3561 24.3727 28.7611 29.1688 27.2052 31.4045L26.0477 33.0632L23.805 30.7551C21.1996 28.05 18.5959 26.6437 15.8453 26.536C13.7106 26.4637 13.3124 26.9331 14.7956 27.8348C17.148 29.2058 20.042 32.308 22.6103 36.2377C24.7449 39.4827 25.5043 40.3491 26.1202 40.3491C26.591 40.3491 27.1327 40.2044 27.3504 40.0615C27.6035 39.9168 29.0868 37.6087 30.678 34.9407C33.7526 29.7476 37.5882 24.5897 40.3016 21.957C41.2061 21.0906 41.9654 20.2259 41.9654 20.0812C41.9672 19.5377 40.6999 19.8271 38.8909 20.7288Z" fill="white"/>
<path d="M11.4326 53.9805C10.8892 54.8822 0 80.8849 0 81.3173C0 82.1837 1.04962 81.8943 7.41639 79.4786C10.8166 78.1798 13.7106 77.1334 13.9283 77.1334C14.1088 77.1334 16.0258 78.2875 18.1622 79.7291C20.8031 81.4602 22.2138 82.1819 22.4669 81.9296C22.7925 81.6049 25.3254 61.4093 25.3254 59.0642C25.3254 58.3796 24.8918 57.8378 23.6245 56.9008C21.019 55.0251 20.3322 54.8081 17.3303 54.7728C15.8116 54.7728 13.8929 54.5204 13.0982 54.2681C12.2645 53.9805 11.5423 53.8358 11.4326 53.9805Z" fill="white"/>
<path d="M45.2222 54.2704C44.5355 54.5228 42.6893 54.7398 41.1352 54.7398C38.0961 54.7751 37.0837 55.1368 34.5508 57.0479C33.7543 57.6602 33.0321 58.2019 32.9595 58.2372C32.7064 58.4172 35.5278 81.6443 35.8181 81.9689C36.0358 82.186 37.735 81.2472 40.0874 79.7332C42.222 78.2898 44.1761 77.1375 44.3921 77.1375C44.6452 77.1375 47.5764 78.1839 50.9394 79.4827C54.3042 80.7814 57.3062 81.8278 57.6318 81.8278C57.9575 81.8278 58.246 81.5401 58.246 81.2137C58.246 80.492 46.9586 53.6599 46.6701 53.7322C46.5604 53.7658 45.909 53.981 45.2222 54.2704Z" fill="white"/>
</svg>
