<svg width="18" height="18" viewBox="0 0 18 18" fill="none" xmlns="http://www.w3.org/2000/svg">
<path d="M17.9792 13.6898L17.1355 17.3461C17.0925 17.5321 16.9878 17.698 16.8384 17.8167C16.6889 17.9355 16.5037 18.0001 16.3128 18C7.30911 18 0 10.7049 0 1.68721L4.88165 0.0913347C5.05815 0.180544 5.19798 0.328542 5.27704 0.509807L6.96457 4.44738M17.9792 13.6898C18.0228 13.496 17.9974 13.2931 17.9075 13.116C17.8176 12.9389 17.6688 12.7987 17.4867 12.7194M17.9792 13.6898L17.4914 13.5801L16.6483 17.2336C16.6308 17.3093 16.5881 17.3769 16.5272 17.4253C16.4664 17.4737 16.3909 17.5 16.3131 17.5H16.3128C7.58497 17.5 0.5 10.4285 0.5 1.68721L0.5 1.6871C0.499983 1.60936 0.526316 1.53391 0.574702 1.47306C0.623074 1.41223 0.690629 1.36959 0.766347 1.35209C0.766371 1.35208 0.766394 1.35208 0.766418 1.35207L4.42105 0.508691C4.42125 0.508645 4.42146 0.508599 4.42166 0.508554C4.5008 0.490714 4.58369 0.500968 4.6561 0.53757C4.72833 0.574081 4.78564 0.634531 4.81825 0.70858L6.50497 4.64427M17.9792 13.6898L17.492 13.5773L17.4916 13.579C17.5093 13.499 17.4988 13.4154 17.4617 13.3423C17.4246 13.2692 17.3633 13.2113 17.2882 13.1784L17.2897 13.179L17.4867 12.7194M17.4867 12.7194L13.5491 11.0319M17.4867 12.7194L17.2872 13.1779L13.3531 11.4919L13.5491 11.0319M13.5491 11.0319C13.3809 10.9602 13.1939 10.9451 13.0164 10.9889C12.8389 11.0326 12.6804 11.1329 12.5647 11.2745L10.8209 13.405C8.08423 12.1147 5.88181 9.91225 4.59149 7.17555L6.72199 5.43177C6.86391 5.31634 6.96436 5.15782 7.00813 4.9802C7.0519 4.80257 7.03661 4.61553 6.96457 4.44738M13.5491 11.0319L13.3521 11.4915L13.3525 11.4917C13.2842 11.4626 13.2082 11.4566 13.136 11.4743C13.0637 11.4922 12.9991 11.533 12.952 11.5907L12.9516 11.5912L11.2079 13.7217L10.9607 14.0237L10.6077 13.8572C7.76599 12.5174 5.47907 10.2305 4.13923 7.38878L3.97281 7.0358L4.2748 6.78863L6.4053 5.04485L6.4065 5.04387C6.46411 4.99701 6.50489 4.93266 6.52265 4.86056C6.54042 4.78846 6.53422 4.71253 6.50497 4.64427M6.96457 4.44738L6.505 4.64434L6.50497 4.64427M6.96457 4.44738L6.50497 4.64427" stroke="white"/>
</svg>
