<svg width="18" height="18" viewBox="0 0 18 18" fill="none" xmlns="http://www.w3.org/2000/svg">
<path d="M15.6541 18H15.4165C12.7394 17.7099 10.1674 16.8006 7.90559 15.3448C5.80438 14.0117 4.02036 12.238 2.67793 10.1475C1.21311 7.8885 0.300193 5.31893 0.0124448 2.64494C-0.0204501 2.326 0.0120317 2.00372 0.107938 1.69767C0.203833 1.39162 0.361148 1.10816 0.570337 0.864494C0.773802 0.617568 1.02494 0.413825 1.30888 0.265328C1.59282 0.11684 1.90378 0.0266141 2.22335 0H4.9095C5.49128 0.000586621 6.05366 0.208374 6.49511 0.585839C6.93656 0.963304 7.22795 1.48557 7.3167 2.05832C7.41485 2.79405 7.59854 3.51589 7.86426 4.20927C8.02584 4.64499 8.05921 5.11763 7.96045 5.57161C7.86158 6.02557 7.6347 6.44199 7.30637 6.77187L6.67616 7.39965C7.66838 8.96006 8.99936 10.2789 10.5711 11.259L11.2013 10.6415C11.5324 10.3144 11.9505 10.0884 12.4062 9.98994C12.8619 9.89156 13.3364 9.9248 13.7738 10.0858C14.4706 10.348 15.195 10.531 15.933 10.6312C16.5178 10.7188 17.0504 11.0159 17.4309 11.4669C17.8113 11.918 18.0135 12.4917 17.9993 13.0806V15.5506C17.9993 16.193 17.7438 16.8093 17.2888 17.2645C16.8338 17.7197 16.2163 17.9767 15.5714 17.9794L15.6541 18ZM4.9095 1.53345H2.44031C2.31907 1.54143 2.20072 1.57382 2.0924 1.62866C1.98408 1.68349 1.88805 1.75964 1.8101 1.85249C1.73424 1.93946 1.67682 2.04083 1.64131 2.15049C1.60581 2.26015 1.59293 2.37583 1.60347 2.49057C1.854 4.91607 2.67134 7.24939 3.99001 9.3036C5.20564 11.2041 6.82423 12.8165 8.73209 14.0274C10.7956 15.3549 13.1405 16.1864 15.5818 16.4563C15.7087 16.4634 15.8358 16.4442 15.9549 16.4C16.0741 16.3556 16.1827 16.2872 16.274 16.199C16.4384 16.031 16.5311 15.8059 16.5323 15.5712V13.1115C16.5369 12.895 16.4617 12.6842 16.3208 12.5191C16.1799 12.3541 15.983 12.2463 15.7677 12.2161C14.9143 12.1018 14.0759 11.8947 13.2676 11.5986C13.1083 11.5393 12.9355 11.5262 12.7691 11.5609C12.6026 11.5954 12.4495 11.6763 12.3274 11.7942L11.2943 12.8233C11.1733 12.9409 11.0174 13.0164 10.8499 13.0386C10.6823 13.0609 10.5122 13.0286 10.3644 12.9468C8.15994 11.7059 6.33519 9.89176 5.08513 7.69811C4.99957 7.55197 4.96531 7.38154 4.98776 7.21378C5.01021 7.04613 5.08809 6.89061 5.20911 6.77187L6.24224 5.74271C6.36072 5.62335 6.44222 5.47256 6.47703 5.30833C6.51184 5.14409 6.49848 4.97334 6.43854 4.81647C6.14016 4.01165 5.93227 3.17636 5.81866 2.3259C5.79302 2.10491 5.68572 1.90133 5.51765 1.75484C5.34958 1.60834 5.13279 1.52942 4.9095 1.53345Z" fill="white"/>
</svg>
