<svg width="57" height="81" viewBox="0 0 57 81" fill="none" xmlns="http://www.w3.org/2000/svg">
<g clip-path="url(#clip0_34_357)">
<path d="M48.8709 31.1548C50.3764 30.1037 53.9031 27.6415 53.9031 21.6775V9.38883H55.5835C56.3523 9.38883 56.9824 8.7589 56.9824 7.99011V1.39803C56.9824 0.629244 56.3521 0 55.5835 0H1.41547C0.645827 0 0.0174389 0.629244 0.0174389 1.39803V7.99011C0.0174389 8.75907 0.645827 9.38883 1.41547 9.38883H3.09688V21.9002C3.09688 27.8073 4.89506 29.1902 8.07501 31.1274L21.9004 39.5521V43.1451C18.4167 45.2391 9.32151 50.7203 8.12826 51.5533C6.6227 52.6037 3.09705 55.0651 3.09705 61.0308V71.6112H1.41564C0.645998 71.6112 0.01761 72.2406 0.01761 73.0094V79.6011C0.01761 80.3699 0.645998 81 1.41564 81H55.5838C56.3526 81 56.9827 80.3699 56.9827 79.6011V73.0094C56.9827 72.2406 56.3525 71.6112 55.5838 71.6112H53.9035V60.8063C53.9035 54.9003 52.1042 53.517 48.9262 51.58L35.1008 43.1555V39.562C38.5821 37.4688 47.6775 31.9882 48.8709 31.1548ZM31.2724 46.7197L46.3061 55.8801C47.4592 56.5836 48.0754 56.9713 48.361 57.4214C48.7019 57.9632 48.8683 59.0698 48.8683 60.8062V71.611H8.13134V61.0306C8.13134 57.6906 9.79529 56.5294 11.0096 55.6813C11.9601 55.0195 20.3245 49.9643 25.7139 46.7282C26.472 46.2731 26.9355 45.4542 26.9355 44.5689V38.1373C26.9355 37.2601 26.4782 36.4451 25.7279 35.9885L10.7391 26.8556L10.6937 26.8274C9.53948 26.1245 8.92393 25.7368 8.63936 25.2848C8.29829 24.7444 8.13117 23.6366 8.13117 21.9002V9.389H48.8681V21.6777C48.8681 25.0165 47.2042 26.1788 45.9892 27.0258C45.0396 27.6888 36.6762 32.7438 31.2865 35.9799C30.5285 36.435 30.065 37.2541 30.065 38.1375V44.5691C30.0651 45.4478 30.5225 46.2623 31.2724 46.7197Z" fill="white"/>
<path d="M44.6859 26.4082C44.6859 26.4082 45.5918 25.6173 44.2063 25.8434C40.9226 26.3767 35.1179 28.4345 28.4402 28.4345C21.7626 28.4345 18.6805 26.551 14.3132 26.4991C13.3596 26.4878 13.379 27.1205 14.4736 27.7646C15.567 28.4081 25.3928 33.874 26.7453 34.6273C28.0973 35.3787 28.8714 35.3207 30.3043 34.6273C32.3888 33.6167 44.6859 26.4082 44.6859 26.4082Z" fill="white"/>
<path d="M14.4216 68.072C13.2661 69.1352 12.7131 69.9064 15.3694 69.9064C17.5364 69.9064 39.2262 69.9064 41.9846 69.9064C44.7412 69.9064 43.6722 68.9727 42.3803 67.7416C39.8846 65.3645 34.6041 63.7065 28.2692 63.7065C21.6336 63.7065 16.9952 65.7021 14.4216 68.072Z" fill="white"/>
</g>
<defs>
<clipPath id="clip0_34_357">
<rect width="57" height="81" fill="white"/>
</clipPath>
</defs>
</svg>
